<svg width="204" height="46" viewBox="0 0 204 46" fill="none" xmlns="http://www.w3.org/2000/svg">
<path d="M198 33.5V27.5H204V33.5H198ZM198 42.5V36.5H204V42.5H198Z" fill="black"/>
<path d="M171 45.5V42.5H168V27.5H171V24.5H186V27.5H189V42.5H186V45.5H171ZM174 42.5H183V27.5H174V42.5Z" fill="black"/>
<path d="M153 45.5V27.5H147V24.5H165V27.5H159V45.5H153Z" fill="black"/>
<path d="M126 45.5V42.5H123V39.5H120V30.5H123V27.5H126V24.5H138V27.5H141V30.5H135V27.5H129V30.5H126V39.5H129V42.5H135V39.5H141V42.5H138V45.5H126Z" fill="black"/>
<path d="M99 45.5V42.5H96V24.5H102V42.5H111V24.5H117V42.5H114V45.5H99Z" fill="black"/>
<path d="M72 45.5V24.5H87V27.5H90V30.5H93V39.5H90V42.5H87V45.5H72ZM78 42.5H84V39.5H87V30.5H84V27.5H78V42.5Z" fill="black"/>
<path d="M51 45.5V42.5H48V27.5H51V24.5H66V27.5H69V42.5H66V45.5H51ZM54 42.5H63V27.5H54V42.5Z" fill="black"/>
<path d="M24 45.5V24.5H42V27.5H45V36.5H39V39.5H42V42.5H45V45.5H36V42.5H33V39.5H30V45.5H24ZM30 36.5H36V33.5H39V27.5H30V36.5Z" fill="black"/>
<path d="M0 45.5V24.5H18V27.5H21V36.5H18V39.5H6V45.5H0ZM6 36.5H15V27.5H6V36.5Z" fill="black"/>
<path d="M168 21.5V0.5H186V3.5H189V12.5H183V15.5H186V18.5H189V21.5H180V18.5H177V15.5H174V21.5H168ZM174 12.5H180V9.5H183V3.5H174V12.5Z" fill="black"/>
<path d="M144 21.5V6.5H147V3.5H150V0.5H159V3.5H162V6.5H165V21.5H159V15.5H150V21.5H144ZM150 12.5H159V6.5H156V3.5H153V6.5H150V12.5Z" fill="black"/>
<path d="M126 21.5V18.5H123V15.5H120V6.5H123V3.5H126V0.5H141V3.5H129V6.5H126V15.5H129V18.5H135V12.5H132V9.5H141V21.5H126Z" fill="black"/>
<path d="M96 21.5V0.5H117V3.5H102V9.5H114V12.5H102V18.5H117V21.5H96Z" fill="black"/>
<path d="M72 21.5V0.5H90V3.5H93V12.5H87V15.5H90V18.5H93V21.5H84V18.5H81V15.5H78V21.5H72ZM78 12.5H84V9.5H87V3.5H78V12.5Z" fill="black"/>
<path d="M54 21.5V18.5H51V15.5H48V6.5H51V3.5H54V0.5H69V3.5H57V6.5H54V15.5H57V18.5H63V12.5H60V9.5H69V21.5H54Z" fill="black"/>
<path d="M24 21.5V6.5H27V3.5H30V0.5H39V3.5H42V6.5H45V21.5H39V15.5H30V21.5H24ZM30 12.5H39V6.5H36V3.5H33V6.5H30V12.5Z" fill="black"/>
</svg>
