<svg width="324" height="22" viewBox="0 0 324 22" fill="none" xmlns="http://www.w3.org/2000/svg">
<path d="M318 9.5V3.5H324V9.5H318ZM318 18.5V12.5H324V18.5H318Z" fill="black"/>
<path d="M291 21.5V18.5H288V15.5H294V18.5H303V12.5H291V9.5H288V3.5H291V0.5H306V3.5H309V6.5H303V3.5H294V9.5H306V12.5H309V18.5H306V21.5H291Z" fill="black"/>
<path d="M267 21.5V18.5H264V3.5H267V0.5H282V3.5H285V18.5H282V21.5H267ZM270 18.5H279V3.5H270V18.5Z" fill="black"/>
<path d="M249 21.5V3.5H243V0.5H261V3.5H255V21.5H249Z" fill="black"/>
<path d="M222 21.5V18.5H219V15.5H216V6.5H219V3.5H222V0.5H234V3.5H237V6.5H231V3.5H225V6.5H222V15.5H225V18.5H231V15.5H237V18.5H234V21.5H222Z" fill="black"/>
<path d="M195 21.5V18.5H192V0.5H198V18.5H207V0.5H213V18.5H210V21.5H195Z" fill="black"/>
<path d="M168 21.5V0.5H183V3.5H186V6.5H189V15.5H186V18.5H183V21.5H168ZM174 18.5H180V15.5H183V6.5H180V3.5H174V18.5Z" fill="black"/>
<path d="M147 21.5V18.5H144V3.5H147V0.5H162V3.5H165V18.5H162V21.5H147ZM150 18.5H159V3.5H150V18.5Z" fill="black"/>
<path d="M120 21.5V0.5H138V3.5H141V12.5H135V15.5H138V18.5H141V21.5H132V18.5H129V15.5H126V21.5H120ZM126 12.5H132V9.5H135V3.5H126V12.5Z" fill="black"/>
<path d="M96 21.5V0.5H114V3.5H117V12.5H114V15.5H102V21.5H96ZM102 12.5H111V3.5H102V12.5Z" fill="black"/>
<path d="M51 21.5V18.5H48V15.5H54V18.5H63V12.5H51V9.5H48V3.5H51V0.5H66V3.5H69V6.5H63V3.5H54V9.5H66V12.5H69V18.5H66V21.5H51Z" fill="black"/>
<path d="M27 21.5V18.5H33V3.5H27V0.5H45V3.5H39V18.5H45V21.5H27Z" fill="black"/>
<path d="M0 21.5V0.5H6V3.5H9V6.5H12V3.5H15V0.5H21V21.5H15V9.5H12V15.5H9V9.5H6V21.5H0Z" fill="black"/>
</svg>
